{"title":"Treasure.Island.2012.HDTV.XviD.Feel-Free","uid":6942469,"size":2439521848,"categoryP":"video","categoryS":"movies","magnet":"?xt=urn:btih:3330dff9dd5a8df9a52f65e7198f75aeb83c1f72&amp;dn=Treasure.Island.2012.HDTV.XviD.Feel-Free&amp;tr=udp%3A%2F%2Ftracker.openbittorrent.com%3A80&amp;tr=udp%3A%2F%2Fopen.demonii.com%3A1337&amp;tr=udp%3A%2F%2Ftracker.coppersurfer.tk%3A6969&amp;tr=udp%3A%2F%2Fexodus.desync.com%3A6969","seeders":1,"leechers":0,"uploader":"rcbcsk","files":-1,"time":1326099408,"description":"Genre:Adventure\nLanguage:English\nIMDb:http://www.imdb.com/title/tt1820723/\nSource:720p.hdtv.x264-bia Thanks!\n\nFormat : AVI\nFormat/Info : Audio Video Interleave\nFile size : 1.06 GiB\nDuration : 1h 27mn\nOverall bit rate : 1 729 Kbps\n\nVideo\nID : 0\nFormat : MPEG-4 Visual\nFormat profile : Advanced Simple@L5\nFormat settings, BVOP : Yes\nFormat settings, QPel : No\nFormat settings, GMC : No warppoints\nFormat settings, Matrix : Default (H.263)\nCodec ID : XVID\nCodec ID/Hint : XviD\nDuration : 1h 27mn\nBit rate : 1 272 Kbps\nWidth : 640 pixels\nHeight : 360 pixels\nDisplay aspect ratio : 16:9\nFrame rate : 25.000 fps\nColor space : YUV\nChroma subsampling : 4:2:0\nBit depth : 8 bits\nScan type : Progressive\nBits/(Pixel*Frame) : 0.221\nStream size : 798 MiB (74%)\nWriting library : XviD 1.2.1\n\nAudio\nID : 1\nFormat : AC-3\nFormat/Info : Audio Coding 3\nMode extension : CM (complete main)\nCodec ID : 2000\nDuration : 1h 27mn\nBit rate mode : Constant\nBit rate : 448 Kbps\nChannel(s) : 6 channels\nChannel positions : Front: L C R, Side: L R, LFE\nSampling rate : 48.0 KHz\nBit depth : 16 bits\nStream size : 281 MiB (26%)\nAlignment : Aligned on interleaves\nInterleave, duration : 40 ms (1.00 video frame)\nInterleave, preload duration : 512 ms","torrent":{"xt":"urn:btih:3330dff9dd5a8df9a52f65e7198f75aeb83c1f72","amp;dn":"Treasure.Island.2012.HDTV.XviD.Feel-Free","amp;tr":["udp%3A%2F%2Ftracker.openbittorrent.com%3A80","udp%3A%2F%2Fopen.demonii.com%3A1337","udp%3A%2F%2Ftracker.coppersurfer.tk%3A6969","udp%3A%2F%2Fexodus.desync.com%3A6969"],"infoHash":"3330dff9dd5a8df9a52f65e7198f75aeb83c1f72","infoHashBuffer":{"type":"Buffer","data":[51,48,223,249,221,90,141,249,165,47,101,231,25,143,117,174,184,60,31,114]},"announce":[],"urlList":[]}}